<svg xmlns="http://www.w3.org/2000/svg" viewBox="0 0 294.62 241.23"><defs><style>.cls-1{fill:#231f20;}.cls-2{fill:#9bd3f3;}.cls-3,.cls-6{fill:#fff;}.cls-3,.cls-5{stroke:#231f20;stroke-miterlimit:10;stroke-width:7px;}.cls-4,.cls-5{fill:#363d43;}</style></defs><title>head</title><g id="Layer_1" data-name="Layer 1"><path class="cls-1" d="M33.67,98.1c-18.5,30.5-17.31,77-18,116.5-.06,3.57-.16,7-.29,10.33,13.38,5.49,48.35,16.12,122.5,18.69,91.07,3.15,128.51-3,148.93-25.1-.06-1.4-.11-2.71-.14-3.91-.5-19.5.5-43-3.5-74s-13.5-42-13.5-42a75.47,75.47,0,0,0,23.5-28c9-18.5,7.5-42-7.5-57s-29-10-45-1-20.5,28.5-20.5,28.5-31-19.5-69-19.5-69,20.5-69,20.5,1-10-17-29-59.5-11-61,26S33.67,98.1,33.67,98.1Z" transform="translate(-4.11 -3.15)"/><path class="cls-2" d="M27.5,149.6s15,25.33,43.17,24.33,60-24.33,80.76-24.33S209.83,174,223.83,174s37-2.36,54-17c0,0-.71-27.17-7-39.08s-100-29.92-100-29.92H130.68L41.17,91.35S29.83,122.6,27.5,149.6Z" transform="translate(-4.11 -3.15)"/><path class="cls-3" d="M127.17,81.6c7.84,12.24,14.5,33,0,56s-46,29.5-67.5,16.5S28.33,126.36,31,96,94.17,30.1,127.17,81.6Z" transform="translate(-4.11 -3.15)"/><path class="cls-3" d="M167.17,108.1c0,16.56,7.5,36.49,29,46.49s59.5,3.5,72-27.5-11.5-70.2-39.5-71.6S167.17,60.61,167.17,108.1Z" transform="translate(-4.11 -3.15)"/><circle cx="59.05" cy="101.44" r="13.25"/><circle cx="235.05" cy="101.44" r="13.25"/><path class="cls-1" d="M39.62,72.82S59.67,87.6,102.84,91.1,227.95,97,260.17,72.82L247.11,55.1,188.66,44.6,78.08,49.1Z" transform="translate(-4.11 -3.15)"/><path class="cls-4" d="M70.67,72.1s17.66,16.5,76.7,14,92.5-12,86-25-50.67-29-77.63-31-36.26,2.5-51.6,7.5S75.78,52.1,128.31,52.1c0,0-77.16,8.5-15.8,13s52.53,10,35.33,11S70.67,72.1,70.67,72.1Z" transform="translate(-4.11 -3.15)"/><path class="cls-2" d="M230.72,39.69s25.71,8.69,42.91,41.7c0,0,15.64-13.73,15.64-35.79s-15.81-35.44-30.93-31.27S235.83,28.15,230.72,39.69Z" transform="translate(-4.11 -3.15)"/><path class="cls-2" d="M72.83,38S46.42,46.27,28.75,77.6c0,0-16.06-13-16.06-34S28.92,10,44.45,14,67.58,27.07,72.83,38Z" transform="translate(-4.11 -3.15)"/><path d="M239.93,47.48s.35-10.92,7.82-17.87,21-6.42,27.45-.86c0,0-25.54-2.26-27.28,23.8Z" transform="translate(-4.11 -3.15)"/><path d="M63.37,46.41s-.36-10.37-8-17-21.6-6.1-28.2-.82c0,0,26.24-2.14,28,22.59Z" transform="translate(-4.11 -3.15)"/><ellipse class="cls-5" cx="146.82" cy="145.43" rx="19.46" ry="8.69"/><path class="cls-4" d="M25.92,164.85a180.51,180.51,0,0,0-1.75,19.38s44.75,14.63,121.75,18.63c0,0-34.08,6.92-68.42,0s-40-7.92-53.33-9.58a111.11,111.11,0,0,0-1.33,18s60,11.67,150,5.33c0,0-22.67,8.33-78,7.33s-52.08-2.33-52.08-2.33,35.28,9,108.18,12.33,112.23-7.33,129.23-22.67c0,0,.33-19.67,0-27,0,0-2,7.33-20,8.33,0,0,18.23-7.75,17.67-26.33,0,0-8,7-27.33,11.67s-34.67,5.39-59.67-4-25.83-9.53-38.17-10.7-25.5,2.33-30.67,4.33-14.83,12.33-41.17,13.67S32.67,179.43,25.92,164.85Z" transform="translate(-4.11 -3.15)"/><path class="cls-6" d="M148.51,44s-4.34,2.42-6.1,5.23-3.38,2.12-4.9.6.2-5,1.87-4.79a2.1,2.1,0,0,1,1.94,1.42S145.51,44,148.51,44Z" transform="translate(-4.11 -3.15)"/><path class="cls-6" d="M168.39,46.69c.26-1.42-1.59-4.41-11.55-5,0,0,1.25-1.47-2.29-2.91a8.77,8.77,0,0,0-6.59,0,18.7,18.7,0,0,1,1.88,3.59c.46,1.47.22,3.68-.16,4.08s-3.13.41-4.3.38c0,0,.16,1.17,3.21,2,0,0-8.49,2.21-9.2,4.57a2.27,2.27,0,0,0,1.42,2.26s6.83-4.19,12.82-4.52,7.79.33,7.79.33a16.23,16.23,0,0,1-4.63,6.26,32.18,32.18,0,0,0-8.7.76s4.89-2,7.83-3.16a2.75,2.75,0,0,0-1.52-2.29s-7.62.49-12.52,3.76c0,0,.54,1.69,3.59,1.2,0,0-3.27,2.61-5.39,4.36,0,0,.11,1.58,2.5,1.8,0,0,1.39.49,5.51-1.85s9.08-1,11.37-.49,3.27.82,2.94-.44a8,8,0,0,0-1.52-2.61s6.86-3.21,7.46-3.92-2.94-5.61-9.58-5.83C158.74,49.09,168.13,48.11,168.39,46.69Zm-14.06.91a15.51,15.51,0,0,0,2-4,23.77,23.77,0,0,1,4.74,0S160.82,46.1,154.33,47.6Z" transform="translate(-4.11 -3.15)"/></g></svg>